<?xml version="1.0" encoding="UTF-8" standalone="no"?>
<svg
   xmlns:dc="http://purl.org/dc/elements/1.1/"
   xmlns:cc="http://creativecommons.org/ns#"
   xmlns:rdf="http://www.w3.org/1999/02/22-rdf-syntax-ns#"
   xmlns:svg="http://www.w3.org/2000/svg"
   xmlns="http://www.w3.org/2000/svg"
   xmlns:sodipodi="http://sodipodi.sourceforge.net/DTD/sodipodi-0.dtd"
   xmlns:inkscape="http://www.inkscape.org/namespaces/inkscape"
   version="1.1"
   x="0px"
   y="0px"
   width="128"
   height="128"
   viewBox="0, 0, 128, 128"
   id="svg3753"
   sodipodi:docname="enabled.svg"
   inkscape:version="0.92.4 (5da689c313, 2019-01-14)"
   inkscape:label="Disabled">
  <metadata
     id="metadata3757">
    <rdf:RDF>
      <cc:Work
         rdf:about="">
        <dc:format>image/svg+xml</dc:format>
        <dc:type
           rdf:resource="http://purl.org/dc/dcmitype/StillImage" />
        <dc:title></dc:title>
      </cc:Work>
    </rdf:RDF>
  </metadata>
  <sodipodi:namedview
     pagecolor="#ffffff"
     bordercolor="#666666"
     borderopacity="1"
     objecttolerance="10"
     gridtolerance="10"
     guidetolerance="10"
     inkscape:pageopacity="0"
     inkscape:pageshadow="2"
     inkscape:window-width="1920"
     inkscape:window-height="1017"
     id="namedview3755"
     showgrid="false"
     inkscape:zoom="1"
     inkscape:cx="75.5"
     inkscape:cy="64"
     inkscape:window-x="-8"
     inkscape:window-y="-8"
     inkscape:window-maximized="1"
     inkscape:current-layer="g28" />
  <g
     id="Background">
    <rect
       x="0"
       y="0"
       width="128"
       height="128"
       id="rect3736"
       style="fill:#000000;fill-opacity:0" />
  </g>
  <g
     id="g3749"
     inkscape:label="disabled">
    <path
       inkscape:connector-curvature="0"
       style="fill:#737370;stroke-width:1.00000024"
       d="M 18.092026,6 H 109.90325 C 116.55245,6 122,11.441023 122,18.096029 V 109.90196 C 122,116.55905 116.55245,122 109.90325,122 H 18.092026 C 11.436019,122 6,116.55905 6,109.90196 V 18.096029 C 6,11.441023 11.436019,6 18.092026,6"
       id="path3836"
       inkscape:label="back" />
    <g
       transform="matrix(0.00368324,0,0,-0.00368324,70.02713,116.02465)"
       id="g4"
       style="fill:#82d1f5;fill-opacity:1;stroke:none" />
    <g
       transform="matrix(0.66667544,0,0,0.66667544,14.00121,21.332709)"
       id="g28"
       style="display:inline">
      <path
         d="M 90.069854,3.479957 C 89.356513,1.2235709 86.980392,-0.01102897 84.723451,0.70218215 L 3.4767601,26.377781 C 1.2199188,27.090982 -0.01486587,29.46663 0.69839437,31.723116 L 33.512365,135.52112 c 0.713341,2.25639 3.089462,3.49099 5.346403,2.77777 l 81.246672,-25.6756 c 2.25684,-0.71319 3.49163,-3.08884 2.77837,-5.34533 L 90.074852,3.479957 Z"
         style="fill:#ebeded;fill-opacity:1;stroke:#000000;stroke-width:1"
         id="path2-1"
         inkscape:connector-curvature="0"
         inkscape:label="card4" />
      <path
         d="m 19.253659,40.744861 -2.270937,0.71766 -1.645047,-2.062765 -4.132911,1.306071 -0.111052,2.61774 -2.2145579,0.699827 0.7591048,-11.609298 2.2074601,-0.697598 z m -5.136674,-2.875035 -2.637313,-3.385729 -0.183748,4.277168 z"
         style="fill:#737370;fill-opacity:1"
         id="path4-3"
         inkscape:connector-curvature="0"
         inkscape:label="a4" />
      <path
         d="m 12.64588,48.941542 1.994429,-4.998276 4.448305,2.763781 -1.880268,5.359329 z"
         style="fill:#737370;fill-opacity:1"
         id="path6-2"
         inkscape:connector-curvature="0"
         inkscape:label="b4" />
      <path
         d="m 110.61293,7.4983294 c -0.36657,-2.337853 -2.53055,-3.9150142 -4.86886,-3.5484627 L 21.563382,17.14452 c -2.338314,0.366502 -3.915784,2.529976 -3.549207,4.867929 L 34.876507,129.55893 c 0.366577,2.33786 2.530549,3.91502 4.868863,3.54847 l 84.18069,-13.19466 c 2.33831,-0.3665 3.91578,-2.52997 3.5492,-4.86793 L 110.61093,7.4983294 Z"
         style="fill:#ebeded;fill-opacity:1;stroke:#000000;stroke-width:1"
         id="path8-6"
         inkscape:connector-curvature="0"
         inkscape:label="card3" />
      <path
         d="m 35.008363,33.717708 -2.353009,0.36879 -1.316758,-2.286274 -4.28216,0.671169 -0.502721,2.571458 -2.294529,0.359634 2.493062,-11.364397 2.287231,-0.358485 z m -4.646938,-3.613237 -2.099295,-3.743084 -0.823663,4.201199 z"
         style="fill:#82d1f5;fill-opacity:1"
         id="path10-9"
         inkscape:connector-curvature="0"
         inkscape:label="a3" />
      <path
         d="M 29.700147,39.965177 C 28.489754,39.580003 27.4593,36.67551 30.07829,36.264976 c 2.61892,-0.410484 2.52695,2.670019 1.492498,3.40702 0.660298,-0.678375 2.9749,-1.807668 3.385462,0.810772 0.410572,2.618439 -2.985996,2.959201 -3.495625,0.931152 l -0.374144,0.05868 c 0,0 0.509659,2.027978 1.217491,2.875235 l -1.870671,0.293211 c 0.41457,-1.023085 0.279046,-3.10974 0.279046,-3.10974 l -0.374135,0.05868 c 0.135525,2.086655 -3.38946,2.830754 -3.800022,0.212354 -0.351922,-2.244391 2.325718,-2.280776 3.161937,-1.836956 z"
         style="fill:#82d1f5;fill-opacity:1"
         id="path12-9"
         inkscape:connector-curvature="0"
         inkscape:label="b3" />
      <path
         d="m 130.53623,15.555064 c 0,-2.366441 -1.89356,-4.259575 -4.26046,-4.259575 H 41.067426 c -2.366905,0 -4.260468,1.893134 -4.260468,4.259575 V 124.41102 c 0,2.36644 1.893563,4.25957 4.260468,4.25957 h 85.208344 c 2.3669,0 4.26046,-1.89313 4.26046,-4.25957 z"
         style="fill:#ebeded;fill-opacity:1;stroke:#000000;stroke-width:1"
         id="path14-5"
         inkscape:connector-curvature="0"
         inkscape:label="card2" />
      <path
         d="m 51.782724,29.749315 h -2.3817 L 48.454263,27.286712 H 44.11982 l -0.894989,2.462603 h -2.32252 l 4.223481,-10.841609 h 2.315121 z m -4.031145,-4.289163 -1.494098,-4.02297 -1.464508,4.02297 z"
         style="fill:#737370;fill-opacity:1"
         id="path16-1"
         inkscape:connector-curvature="0"
         inkscape:label="a2" />
      <path
         d="m 46.424525,33.107955 c 0,-0.56794 -0.946772,-1.70381 -1.893563,-1.70381 -0.946762,0 -1.893564,0.757263 -1.893564,2.082456 0,2.082457 3.029682,5.490177 3.787027,6.436693 0.757405,-0.946576 3.787027,-4.354236 3.787027,-6.436693 0,-1.325263 -0.946772,-2.082456 -1.893563,-2.082456 -0.951501,0 -1.893564,1.13594 -1.893564,1.70381 z"
         style="fill:#737370;fill-opacity:1"
         id="path18-5"
         inkscape:connector-curvature="0"
         inkscape:label="b2" />
      <path
         d="m 149.43988,26.480639 c 0.38018,-2.335754 -1.1846,-4.508374 -3.52082,-4.88852 L 61.817351,7.9076636 C 59.481136,7.5275576 57.308066,9.0920839 56.927894,11.427736 L 39.439773,118.87426 c -0.380182,2.33576 1.184602,4.50838 3.520816,4.88852 l 84.102711,13.68346 c 2.33622,0.38011 4.50929,-1.18442 4.88946,-3.52007 L 149.43688,26.479639 Z"
         style="fill:#ebeded;fill-opacity:1;stroke:#000000;stroke-width:1"
         id="path20"
         inkscape:connector-curvature="0"
         inkscape:label="card1" />
      <path
         d="m 69.426793,27.850084 -2.35081,-0.382475 -0.538849,-2.582654 -4.278162,-0.696068 -1.27897,2.286874 -2.292429,-0.372979 5.910313,-10.021941 2.285032,0.3718 z M 66.137099,22.969261 65.308697,18.758567 63.2169,22.494054 Z"
         style="fill:#82d1f5;fill-opacity:1"
         id="path22"
         inkscape:connector-curvature="0"
         inkscape:label="a1" />
      <path
         d="m 63.798685,28.519813 c -1.860175,1.99899 -4.035444,2.98769 -4.339542,4.856333 -0.273738,1.681719 0.599909,2.207506 1.16061,2.298669 0.747579,0.121641 1.36914,-0.160855 1.581968,-1.468805 0.06078,-0.373709 0.434624,-0.312893 0.373795,0.06077 -0.304148,1.868543 -0.677932,1.807768 -1.203796,2.681214 l 2.055809,0.334495 c -0.221715,-0.995107 -0.595509,-1.055972 -0.291362,-2.924516 0.06088,-0.373718 0.434614,-0.312903 0.373785,0.06078 -0.243309,1.494894 0.286953,1.772982 1.034552,1.894532 0.560681,0.09126 1.742914,-0.100039 2.016622,-1.781778 0.308116,-1.892933 -1.632251,-3.526272 -2.762471,-6.011865 z"
         style="fill:#82d1f5;fill-opacity:1"
         id="path24"
         inkscape:connector-curvature="0"
         inkscape:label="b1" />
      <path
         d="M 97.447374,50.001112 C 87.34277,60.860714 75.525743,66.231538 73.873298,76.381427 c -1.487,9.1355 3.258905,11.991144 6.304681,12.486943 4.060935,0.660742 7.4372,-0.873806 8.593811,-7.979168 0.330439,-2.030078 2.361006,-1.699712 2.030517,0.330366 -1.652244,10.150888 -3.682762,9.820222 -6.539202,14.5651 l 11.168246,1.817065 c -1.204395,-5.405611 -3.234812,-5.735977 -1.582668,-15.886566 0.330449,-2.030078 2.360907,-1.699711 2.030518,0.330376 -1.321756,8.120411 1.558776,9.631099 5.619799,10.291832 3.04577,0.495569 9.46771,-0.54343 10.95431,-9.67888 1.67374,-10.282835 -8.86672,-19.155241 -15.005936,-32.657772 z"
         style="fill:#82d1f5;fill-opacity:1"
         id="path26"
         inkscape:connector-curvature="0"
         inkscape:label="spade" />
    </g>
  </g>
  <defs
     id="defs3751" />
</svg>
